<svg xmlns="http://www.w3.org/2000/svg" version="1.1" xmlns:xlink="http://www.w3.org/1999/xlink" xmlns:svgjs="http://svgjs.dev/svgjs" viewBox="0 0 800 800"><defs><filter id="ssspot-filter" x="-20%" y="-20%" width="140%" height="140%" filterUnits="objectBoundingBox" primitiveUnits="userSpaceOnUse" color-interpolation-filters="sRGB">
	<feTurbulence type="turbulence" baseFrequency="0.022 0.218" numOctaves="2" seed="10" stitchTiles="stitch" x="0%" y="0%" width="100%" height="100%" result="turbulence"></feTurbulence>
	<feGaussianBlur stdDeviation="0 3" x="0%" y="0%" width="100%" height="100%" in="turbulence" edgeMode="duplicate" result="blur"></feGaussianBlur>
	<feDisplacementMap in="SourceGraphic" in2="blur" scale="32" xChannelSelector="R" yChannelSelector="B" x="0%" y="0%" width="100%" height="100%" result="displacementMap"></feDisplacementMap>
</filter></defs><rect width="100%" height="100%" fill="hsl(32, 100%, 89%)"></rect><g fill="hsl(32, 100%, 51%)" filter="url(#ssspot-filter)"><circle r="5.030412527449063" cx="157.2282291290329" cy="80.48466246133214" opacity="0.3241456560649376"></circle><circle r="5.621352311025808" cx="531.2311165394192" cy="157.12443388432285" opacity="0.4453727057128849"></circle><circle r="4.877979375272486" cx="50.310789827109716" cy="394.3286309687504" opacity="0.29805192241043554"></circle><circle r="7.197839583782779" cx="422.40820988572483" cy="365.1845351770798" opacity="0.6731772462564161"></circle><circle r="7.183253462593221" cx="448.47187003871926" cy="714.1354497045833" opacity="0.2063397936298856"></circle><circle r="11.426037110909604" cx="425.7731966534292" cy="575.2343232448287" opacity="0.7860649954270245"></circle><circle r="5.857488292434781" cx="520.3060853647721" cy="116.71615677518884" opacity="0.7469884833858623"></circle><circle r="10.144161610245842" cx="629.5424728218904" cy="451.73784578476403" opacity="0.8576449509164613"></circle><circle r="7.66705518360538" cx="382.90496435655837" cy="551.4995793691884" opacity="0.6935611740285528"></circle><circle r="9.140697187748968" cx="438.5055538637167" cy="221.08670828457488" opacity="0.5671477885974853"></circle><circle r="8.007461451135379" cx="115.55593926562514" cy="505.4668745910628" opacity="0.25086012382660383"></circle><circle r="5.4196918693362965" cx="459.2460832741268" cy="373.1757576572076" opacity="0.6061673760492136"></circle><circle r="4.712285668677526" cx="468.8209870541081" cy="441.7180608298943" opacity="0.19802348154995775"></circle><circle r="6.526403058100895" cx="285.7380302208774" cy="171.65968665527774" opacity="0.18682572406510192"></circle><circle r="6.62613296125453" cx="572.4825936070807" cy="179.73425375994293" opacity="0.5988724231685993"></circle><circle r="8.850649433243072" cx="375.638416696115" cy="175.1393339702029" opacity="0.7014551774252588"></circle><circle r="6.9804939905083" cx="236.77417816642878" cy="85.99152963950525" opacity="0.7954629433576095"></circle><circle r="7.2276184710076254" cx="611.7595515349391" cy="51.19191420485301" opacity="0.20036011131277343"></circle><circle r="4.421574262636825" cx="319.83534299086756" cy="37.21045599404805" opacity="0.7508461038655618"></circle><circle r="9.320983798906976" cx="322.6165259156723" cy="176.82369514519345" opacity="0.4764811964236634"></circle><circle r="12.3446650482458" cx="175.30906212703908" cy="572.8831860277604" opacity="0.7311449961768001"></circle><circle r="9.48137325258515" cx="753.4499078694955" cy="488.68320004109694" opacity="0.5850234860365184"></circle><circle r="6.1570683716059715" cx="68.64439334814001" cy="493.642249991957" opacity="0.5725225602391186"></circle><circle r="6.2265425606078875" cx="19.45508260874587" cy="494.7836618608915" opacity="0.1920443193620407"></circle><circle r="6.93396565600867" cx="587.5004742990218" cy="349.2693172993836" opacity="0.10353482265569675"></circle><circle r="5.650644185692201" cx="201.53334316294178" cy="280.4055763702422" opacity="0.3173442328987004"></circle><circle r="6.562222232949792" cx="51.51872547232885" cy="126.98922455188098" opacity="0.7362413841233405"></circle><circle r="10.544335700472018" cx="681.7447592906212" cy="570.8665725984214" opacity="0.15168501743347731"></circle><circle r="5.171804785120047" cx="340.13753206683873" cy="378.2539684336168" opacity="0.6394400168729325"></circle><circle r="5.648729921870698" cx="516.921158546018" cy="628.9875053614854" opacity="0.6256029551516498"></circle><circle r="7.094457777457976" cx="55.07560347966376" cy="621.276432322323" opacity="0.3287456221076036"></circle><circle r="3.490350839075506" cx="30.230598547126046" cy="733.1610357439015" opacity="0.8064759514431722"></circle><circle r="4.7387906766062144" cx="655.8909928503416" cy="706.8451803424972" opacity="0.1129003808283916"></circle><circle r="4.9578471044837595" cx="490.0807771097755" cy="652.6777037782823" opacity="0.6625742565921583"></circle><circle r="7.9071619716674" cx="474.1796977833849" cy="406.33853085521685" opacity="0.9008162551913196"></circle><circle r="11.708700439816766" cx="635.8261277278248" cy="507.6248093808134" opacity="0.46903781515616527"></circle><circle r="7.8141587664616265" cx="569.7522899904413" cy="518.2611617686922" opacity="0.8567330799782977"></circle><circle r="5.127647351914604" cx="775.4336113677482" cy="547.5399458112124" opacity="0.34437652482625886"></circle><circle r="10.723857032373383" cx="572.6594086810038" cy="464.6032282447134" opacity="0.3869267742188025"></circle><circle r="4.200725349757399" cx="268.39237223596757" cy="313.9452370022693" opacity="0.1818955523426241"></circle><circle r="7.137784487580173" cx="713.2389221844661" cy="299.64943415844346" opacity="0.6373156382048369"></circle><circle r="5.407175167273631" cx="154.4706079676192" cy="120.01379418441198" opacity="0.4144889294817685"></circle><circle r="5.18647707538385" cx="567.129773211926" cy="251.46328298364605" opacity="0.5361468721263802"></circle><circle r="4.163339721851292" cx="414.2399229598327" cy="12.8419092773628" opacity="0.4403079235249504"></circle><circle r="8.741348006508316" cx="188.83994820349014" cy="164.69155568125856" opacity="0.670696344478017"></circle><circle r="5.319883446566487" cx="728.6978819015214" cy="29.018033651767666" opacity="0.8889751275398283"></circle><circle r="4.99613709734028" cx="314.78367722741933" cy="573.5512495480151" opacity="0.5296204000807753"></circle><circle r="5.424832111310203" cx="482.5947665783145" cy="777.7726759314858" opacity="0.265246851937847"></circle><circle r="9.91165396582637" cx="192.15088949318562" cy="625.6286950802911" opacity="0.14573555348735046"></circle><circle r="7.017669439466637" cx="771.8332506552583" cy="740.991948025021" opacity="0.612316673245531"></circle><circle r="5.264646791889715" cx="347.70699026625056" cy="739.4518548709837" opacity="0.8000712389870513"></circle><circle r="5.246916102896705" cx="706.631130695775" cy="338.13343780320093" opacity="0.8295538997622309"></circle><circle r="5.086627636726401" cx="12.62418935347245" cy="333.5090895351276" opacity="0.7672867963609139"></circle><circle r="7.636586409506111" cx="427.6274526325091" cy="182.2674733584815" opacity="0.33502523063479495"></circle><circle r="7.018232535217631" cx="73.05893502606537" cy="744.983150655135" opacity="0.7511951187897407"></circle><circle r="5.364436018192812" cx="323.24318498312607" cy="284.8714980309726" opacity="0.5297421701692572"></circle><circle r="7.241360125211454" cx="73.76130593380557" cy="782.524847923519" opacity="0.4797483201350188"></circle><circle r="6.008519490503648" cx="775.9430973974025" cy="446.36851816028565" opacity="0.17227040548372785"></circle><circle r="8.113225826127135" cx="78.00028651255464" cy="703.7859321559856" opacity="0.7878329047322216"></circle><circle r="5.753565704156642" cx="98.87573276108834" cy="149.8813377689507" opacity="0.35654906329665004"></circle><circle r="5.691034743210432" cx="20.723525264830826" cy="282.7505198377248" opacity="0.12056137218632332"></circle><circle r="6.491706771709549" cx="398.428032809288" cy="73.57873391661586" opacity="0.9630192492468258"></circle><circle r="7.018996979407846" cx="732.0721431532047" cy="434.6634277723818" opacity="0.7138211352562412"></circle><circle r="9.250710443950334" cx="661.7569405248395" cy="316.8805422402707" opacity="0.2728734664060052"></circle><circle r="7.228063592635671" cx="530.0770131448776" cy="250.64672237523362" opacity="0.9014013034711932"></circle><circle r="6.0421140960034245" cx="17.838133115298753" cy="626.8196018353536" opacity="0.818820096204784"></circle><circle r="7.768674606951956" cx="185.6300517932695" cy="216.58637450519132" opacity="0.7887356601569652"></circle><circle r="6.290541779835172" cx="59.52192833322701" cy="462.4810228522084" opacity="0.801137003341645"></circle><circle r="8.472767032867164" cx="88.64708109903705" cy="660.5960613800696" opacity="0.4396836505273243"></circle><circle r="7.124041374176485" cx="377.73007585439564" cy="620.3600154777602" opacity="0.17657826959185796"></circle><circle r="6.784682133755798" cx="403.9026516172172" cy="514.4267485750477" opacity="0.9044404652859027"></circle><circle r="5.8651819346107965" cx="592.1165708179296" cy="127.32458974281352" opacity="0.5203303381678694"></circle><circle r="8.836655073322213" cx="715.1602031577557" cy="751.6035247910328" opacity="0.33063591425366956"></circle><circle r="7.882511162483196" cx="393.31493869493477" cy="474.91432762895846" opacity="0.49994386407845726"></circle><circle r="5.1064491597600545" cx="647.4324707497443" cy="18.990222821254054" opacity="0.6777537485837207"></circle><circle r="7.031407123904521" cx="273.1049439658624" cy="451.2715868622054" opacity="0.5706469273593252"></circle><circle r="12.354703387320548" cx="660.7517269424156" cy="773.2011564770029" opacity="0.7035514362257751"></circle><circle r="3.4387103031999233" cx="281.0012894325902" cy="142.85283245005112" opacity="0.6077273961579079"></circle><circle r="7.6763164513415685" cx="275.4201412434879" cy="108.40387269184383" opacity="0.32980201317024116"></circle><circle r="8.475163948568404" cx="665.0114803037008" cy="229.61886311371967" opacity="0.34080446821048316"></circle><circle r="5.997832686954954" cx="400.2712950899239" cy="770.8785076587985" opacity="0.6991511187288926"></circle><circle r="6.232320293877072" cx="579.035486566879" cy="728.5896253019654" opacity="0.5215712939937487"></circle><circle r="6.540689739388319" cx="409.55904032508056" cy="635.7252329496374" opacity="0.42108857940881894"></circle><circle r="7.558168530154285" cx="118.06584423594404" cy="109.70572066604124" opacity="0.2712962173979278"></circle><circle r="6.610050253238791" cx="30.260430542919405" cy="523.4033279748352" opacity="0.13296685998577856"></circle><circle r="7.711058598650082" cx="78.85522239675151" cy="181.88000384462416" opacity="0.6656332458557348"></circle><circle r="4.3580213856327426" cx="239.70592792460167" cy="187.91011216878272" opacity="0.8089114014904314"></circle><circle r="8.700293870621891" cx="208.80549330885367" cy="245.18296049897924" opacity="0.16014548994930367"></circle><circle r="6.0753354740132774" cx="301.1186657003675" cy="12.861941895569661" opacity="0.9079583036465793"></circle><circle r="6.505123227847938" cx="146.86069540178454" cy="307.19360277652254" opacity="0.7899296494040225"></circle><circle r="4.437393382430093" cx="507.5314201288741" cy="556.9594631680238" opacity="0.4684301439278391"></circle><circle r="8.619689206329364" cx="390.0213560272537" cy="115.56308607370745" opacity="0.1282738691800454"></circle><circle r="4.065172712305192" cx="250.86093496887744" cy="255.34608493838468" opacity="0.4245759210053309"></circle><circle r="6.690982163701734" cx="449.2296762880278" cy="755.2011049431558" opacity="0.14917021940400138"></circle><circle r="9.15983191100436" cx="779.371150311337" cy="154.95392382648953" opacity="0.8044942320650746"></circle><circle r="5.736654633797656" cx="282.9180645892668" cy="288.75668960527753" opacity="0.30557590500418985"></circle><circle r="9.131537320273573" cx="57.54973709984805" cy="80.10107350462582" opacity="0.6711409298792557"></circle><circle r="8.576106031556916" cx="605.696709191295" cy="232.36059061805267" opacity="0.7440822626993342"></circle><circle r="8.492365417224512" cx="115.32401778952504" cy="208.74916771280394" opacity="0.46712860826426494"></circle><circle r="6.116271355125072" cx="783.5519901184327" cy="340.77422095924953" opacity="0.3571794197536601"></circle><circle r="8.459263673600999" cx="240.56689891021773" cy="586.6934601337481" opacity="0.6669387987857809"></circle><circle r="11.737979410381811" cx="378.9140488719987" cy="677.5120781005461" opacity="0.7775548630307711"></circle><circle r="5.714287733230698" cx="438.58619427550093" cy="786.818699727469" opacity="0.5373629248051383"></circle><circle r="8.654228279851914" cx="722.6018953081351" cy="629.2489607194773" opacity="0.5426673622839142"></circle><circle r="5.90553403860358" cx="92.9308239478406" cy="18.333467507770457" opacity="0.6785595126204481"></circle><circle r="10.405556992424621" cx="511.49797842729396" cy="455.2484961864202" opacity="0.9504253874517345"></circle><circle r="6.8359115091958635" cx="519.424164000636" cy="774.1167111254231" opacity="0.12626525514720288"></circle><circle r="7.755868440864806" cx="299.31750163850757" cy="342.4686110351747" opacity="0.9672649538815214"></circle><circle r="4.971963449975201" cx="588.3914284767309" cy="279.44004317344286" opacity="0.4506617494168125"></circle><circle r="10.22821962830986" cx="349.52980865893704" cy="313.8497451453563" opacity="0.6824226191970604"></circle><circle r="9.170018294913941" cx="452.72075108399775" cy="507.19655751319885" opacity="0.3122775883871488"></circle><circle r="8.709235506503575" cx="459.88189976977156" cy="30.551315143101334" opacity="0.38885223758586884"></circle><circle r="10.405931035987006" cx="360.16453936828435" cy="448.1427025905813" opacity="0.5640927506081542"></circle><circle r="8.014038853539478" cx="393.26829795237296" cy="284.5143777229066" opacity="0.6756244837681628"></circle><circle r="5.45116824998487" cx="98.05639142327927" cy="81.29794959431379" opacity="0.6455671610913875"></circle><circle r="5.2493807029112105" cx="220.8810900778584" cy="486.2045651478348" opacity="0.9198069405460266"></circle><circle r="5.209205896044623" cx="417.19770986228855" cy="45.22238673136651" opacity="0.5685379886489643"></circle><circle r="9.031510185179183" cx="126.69033751329928" cy="447.60735466731666" opacity="0.38086092896352985"></circle><circle r="7.47067502861378" cx="732.2510225547964" cy="560.8848565578385" opacity="0.17886515156725064"></circle><circle r="8.441315372922055" cx="628.8738749115344" cy="408.93968376494814" opacity="0.8338375266490292"></circle><circle r="7.331216856439538" cx="697.1544436547888" cy="17.23485509568389" opacity="0.641611033395573"></circle><circle r="8.474121392996473" cx="312.52390697826445" cy="113.26227514424626" opacity="0.6128820164817333"></circle><circle r="7.624561117487536" cx="139.3396360424756" cy="392.1250705581729" opacity="0.45981967551569813"></circle><circle r="6.698321449607995" cx="207.89703934667332" cy="196.61905667135682" opacity="0.9960615565919697"></circle><circle r="8.108184345101163" cx="731.3880453304785" cy="381.08520686323646" opacity="0.8710786482264292"></circle><circle r="7.072274127214994" cx="627.189109402783" cy="79.40802561548813" opacity="0.710714838009203"></circle><circle r="4.0812799836539515" cx="233.92566667074038" cy="211.27018494365493" opacity="0.535775052344571"></circle><circle r="4.881511490012559" cx="12.574789524652786" cy="431.377784009069" opacity="0.9457423115004933"></circle><circle r="4.22040669790331" cx="468.6002316558434" cy="539.6457088293513" opacity="0.30908128477948904"></circle><circle r="12.053511786665545" cx="288.8635553782639" cy="728.1546678387876" opacity="0.775368017318123"></circle><circle r="4.576729308029227" cx="490.5179030789299" cy="687.3515191971751" opacity="0.18712800741423852"></circle><circle r="7.542186178211497" cx="175.46681545407682" cy="421.06669974418674" opacity="0.6419164746494539"></circle><circle r="5.099275373664149" cx="789.1413315919827" cy="485.44592114457873" opacity="0.2579630494610702"></circle><circle r="5.9555803079177725" cx="695.1843365033492" cy="377.9867292053939" opacity="0.30837895338097254"></circle><circle r="6.213298280371715" cx="757.3954920713638" cy="606.3402375580847" opacity="0.9470068614249638"></circle><circle r="7.200813499901686" cx="65.50612190554762" cy="44.51443505535857" opacity="0.9213520816161741"></circle><circle r="5.249159681536861" cx="130.19125322038767" cy="345.3175771052097" opacity="0.44713813593001217"></circle><circle r="6.598397304001341" cx="119.95200391685349" cy="258.9012173454218" opacity="0.4732548413691051"></circle><circle r="5.952612638200156" cx="251.1768691313112" cy="770.2001351912048" opacity="0.7506622795811747"></circle><circle r="9.122194675690402" cx="457.12918706553614" cy="622.2897607837056" opacity="0.5519579373251529"></circle><circle r="8.964781399018921" cx="719.5503802675337" cy="81.0306240315677" opacity="0.6233464271313593"></circle><circle r="6.734055222099091" cx="740.3159293843422" cy="675.201061242423" opacity="0.5453505121348293"></circle><circle r="9.771044848263784" cx="295.4098583441314" cy="498.90107350691204" opacity="0.961826235370126"></circle><circle r="7.945560580097693" cx="61.24968560218113" cy="297.2831369421527" opacity="0.8671281104392248"></circle><circle r="8.352481115241988" cx="509.8459957794088" cy="499.25070764059217" opacity="0.5614267892360965"></circle><circle r="6.678545715054749" cx="115.41604347600536" cy="783.0067249657924" opacity="0.19625061802847582"></circle><circle r="12.482890677216808" cx="386.35260746750737" cy="237.11039228177015" opacity="0.7630697140068781"></circle><circle r="6.795272192736211" cx="478.4676021674766" cy="167.28097619109658" opacity="0.979736053471621"></circle><circle r="5.528768787847403" cx="253.75929878594218" cy="504.73044890960745" opacity="0.6626493550137793"></circle><circle r="7.363478602029456" cx="782.3663885176162" cy="660.7871169283366" opacity="0.7251782087073503"></circle><circle r="10.115765613565792" cx="695.8793435538227" cy="473.40121252115017" opacity="0.7896489215629117"></circle><circle r="12.78773598554825" cx="710.4935898982075" cy="191.80005057416315" opacity="0.6189929700199089"></circle><circle r="5.195169424886261" cx="44.425531151124325" cy="436.57615292507404" opacity="0.6760377747700438"></circle><circle r="4.372928645221654" cx="599.5512567257588" cy="701.8115305339634" opacity="0.2740450836909465"></circle><circle r="7.298630474185977" cx="75.45210811184099" cy="253.31056812346316" opacity="0.4951134015956442"></circle><circle r="7.821707830420431" cx="21.36945048005227" cy="55.145882589974896" opacity="0.9770671763631997"></circle><circle r="5.489252545633781" cx="42.5385264137165" cy="670.1430467361276" opacity="0.4983131308501769"></circle><circle r="5.465813915066989" cx="627.932809180081" cy="689.2017730576442" opacity="0.7270771816516234"></circle><circle r="4.787955668110436" cx="573.2859275253118" cy="313.70117919904277" opacity="0.6600691548917921"></circle><circle r="8.704632251660932" cx="267.1564276418337" cy="674.2348959217702" opacity="0.3758267405223408"></circle><circle r="6.377153699823803" cx="559.5396262690049" cy="47.027349010043665" opacity="0.3487586509019063"></circle><circle r="8.700924528116019" cx="672.6580211545328" cy="152.7169915877175" opacity="0.6549060175718565"></circle><circle r="6.963652637019878" cx="479.12678645793534" cy="80.5126345118142" opacity="0.38336527074983795"></circle><circle r="4.806624165228545" cx="18.699565596153843" cy="371.0303477130472" opacity="0.556195887997328"></circle><circle r="6.287950425011227" cx="208.71189654372023" cy="452.54147318295423" opacity="0.36833120761614"></circle><circle r="6.5376710776475075" cx="16.809621341697913" cy="461.621060340715" opacity="0.7709644688987606"></circle><circle r="9.472708266831408" cx="238.7575545736889" cy="707.3889672530697" opacity="0.2502630019730105"></circle><circle r="9.247472562732181" cx="622.284594424218" cy="355.4364226306603" opacity="0.6570896925748654"></circle><circle r="5.5761471713130675" cx="776.1893031356497" cy="518.4775557141598" opacity="0.21737195750617402"></circle><circle r="5.575448869002426" cx="688.6094141744845" cy="724.6227192334792" opacity="0.7536868361803108"></circle><circle r="7.011947064168963" cx="610.6501390089649" cy="560.1856016378377" opacity="0.17428580456919598"></circle><circle r="9.034161505115371" cx="17.027094084825848" cy="558.7677063149978" opacity="0.7208725754210199"></circle><circle r="12.395244714195558" cx="320.4427994288648" cy="650.268131724235" opacity="0.46580850222960146"></circle><circle r="7.649576039942674" cx="300.67699568352776" cy="778.4461728904313" opacity="0.14598875542713213"></circle><circle r="7.809855279213741" cx="51.60823700252915" cy="346.3707116802246" opacity="0.9883123781556666"></circle><circle r="5.1247051530398195" cx="52.39474994266419" cy="547.4398550386203" opacity="0.756287608839006"></circle><circle r="3.5990098590613755" cx="17.168904477748868" cy="405.46672707372426" opacity="0.5189390380627299"></circle><circle r="8.402539330818641" cx="296.46237158296714" cy="251.13284496321333" opacity="0.8704920416376026"></circle><circle r="5.526353891254805" cx="148.1684679568126" cy="539.8198646809163" opacity="0.4688904150665332"></circle><circle r="6.945967835957763" cx="331.3743825196214" cy="548.4298263517661" opacity="0.9647556462597232"></circle><circle r="4.911351878483919" cx="454.4735555636182" cy="257.2192282026916" opacity="0.35413080598439495"></circle><circle r="8.128059770183308" cx="26.318185230366968" cy="159.26746130795908" opacity="0.2797042076723769"></circle><circle r="10.72474579276752" cx="222.0841426841002" cy="405.5477663219843" opacity="0.4441446961216641"></circle><circle r="11.388036079776082" cx="97.0165735899036" cy="301.97925694115935" opacity="0.8883078049843045"></circle><circle r="3.8972719913047675" cx="58.42924831739924" cy="573.808382356047" opacity="0.5745083666447109"></circle><circle r="5.949410607711975" cx="261.5187864910571" cy="379.44546804048775" opacity="0.8939672491149971"></circle><circle r="12.15320853819403" cx="163.5167987424215" cy="485.2348539706245" opacity="0.8456214054156973"></circle><circle r="9.067834091108072" cx="658.7265340208162" cy="374.62319889031005" opacity="0.17066776289431806"></circle><circle r="8.088471798704372" cx="87.58673061792491" cy="406.77723209051226" opacity="0.7777508676792659"></circle><circle r="5.989166580501795" cx="403.7390778011717" cy="722.6423315476887" opacity="0.44838118798159654"></circle><circle r="5.993268023338345" cx="485.9679879826992" cy="121.42089434186425" opacity="0.5017455109216789"></circle><circle r="4.950687047447008" cx="456.2598341107086" cy="139.2512450854465" opacity="0.6114937940815256"></circle><circle r="9.865463378613779" cx="335.81069317757107" cy="700.0266819594981" opacity="0.9339139174129573"></circle><circle r="5.215989173954847" cx="755.1564436191111" cy="53.9905410979786" opacity="0.5243327367762002"></circle><circle r="5.568711082571387" cx="418.37383588769217" cy="141.60685049772007" opacity="0.9672346714940759"></circle><circle r="6.011552589902024" cx="167.57380864277036" cy="47.27520363815896" opacity="0.6000165616962976"></circle><circle r="6.78486654880208" cx="535.5573731151874" cy="659.0484732896117" opacity="0.2731470392244527"></circle><circle r="7.862563296305675" cx="553.0594821353911" cy="759.2911772274459" opacity="0.305046927234484"></circle><circle r="8.498958713498428" cx="706.2568222505331" cy="518.1163485917629" opacity="0.12919338229322008"></circle><circle r="5.802531098853397" cx="532.554647696447" cy="595.7961481571143" opacity="0.12076071855312075"></circle><circle r="5.053380344356946" cx="619.2321717385314" cy="784.4307251082232" opacity="0.32227052315539645"></circle><circle r="9.448186084928743" cx="621.5286750237684" cy="152.55394965229974" opacity="0.23637239356675108"></circle><circle r="7.61648484161243" cx="491.6349530538082" cy="224.29557859904725" opacity="0.4225787021256938"></circle><circle r="5.267651869381231" cx="575.9441996982499" cy="85.66799063638312" opacity="0.8879909670745295"></circle><circle r="6.780520273480622" cx="269.0048035887613" cy="47.718997380518324" opacity="0.8315168643981743"></circle><circle r="6.716608167194691" cx="101.30548239617237" cy="554.9561065468125" opacity="0.24023238455582913"></circle><circle r="6.4365709392806725" cx="751.0198910171064" cy="348.42806898937846" opacity="0.26927587946892584"></circle><circle r="5.7619985366952555" cx="199.8424968299857" cy="122.91879874176227" opacity="0.6061561797848934"></circle><circle r="5.586684378383227" cx="17.992846204473047" cy="102.7784456453698" opacity="0.19539217250527163"></circle><circle r="5.738556452897244" cx="354.60437156489974" cy="592.8729241133192" opacity="0.34389634735495894"></circle><circle r="6.222468124758938" cx="127.79495855822796" cy="18.40285546032675" opacity="0.8991506480671992"></circle><circle r="9.794057892559831" cx="544.8462005171494" cy="421.94430197279917" opacity="0.17778208556652864"></circle><circle r="8.261136396351858" cx="498.67040517630556" cy="36.66045050354158" opacity="0.8066052444725645"></circle><circle r="8.373054158065665" cx="652.6440350364079" cy="606.6852793698595" opacity="0.4362599717780129"></circle><circle r="6.189818268149933" cx="224.37194715389455" cy="154.65068500727972" opacity="0.6661215423278494"></circle><circle r="4.641696771137821" cx="113.37714529848543" cy="54.62620604002809" opacity="0.9789272078722432"></circle><circle r="7.972470045168098" cx="402.0855109280088" cy="330.6957656599958" opacity="0.6319739514832158"></circle><circle r="7.514236497661584" cx="146.92810494015524" cy="773.6237171496459" opacity="0.8800586490177399"></circle><circle r="8.783175864542798" cx="544.0355008259666" cy="214.34122620075857" opacity="0.4478404052254571"></circle><circle r="7.449437014914977" cx="312.93960089313697" cy="70.51790268200199" opacity="0.8347986084761612"></circle><circle r="6.149172535145908" cx="575.4873925982046" cy="681.4282270179549" opacity="0.4259138340098948"></circle><circle r="5.1848223080125795" cx="673.1126484059586" cy="51.350237890109966" opacity="0.7860452898359898"></circle><circle r="9.632236605243076" cx="686.3762181919069" cy="423.10087487935147" opacity="0.11545564928717451"></circle><circle r="4.796973189964547" cx="206.61878969943203" cy="730.0395726965044" opacity="0.10365639444751332"></circle><circle r="7.83206444434945" cx="250.46298750943666" cy="21.459346802459002" opacity="0.6717945788730973"></circle><circle r="6.392770992052866" cx="566.3274147036464" cy="646.2608283460997" opacity="0.7644967620838211"></circle><circle r="7.249497429453423" cx="593.717351558744" cy="17.245203722587384" opacity="0.4736158688480915"></circle><circle r="6.697050229905827" cx="769.8551028176544" cy="199.37472404485862" opacity="0.17157973254780398"></circle><circle r="5.294839530361511" cx="532.4365055244531" cy="16.37701818784216" opacity="0.2724553378711867"></circle><circle r="7.9111100189676975" cx="212.7355020676651" cy="775.2254960220882" opacity="0.5476903488771331"></circle><circle r="8.053405389566851" cx="77.81205432866109" cy="526.5912821951069" opacity="0.5122184097161604"></circle><circle r="4.223271784969485" cx="250.51467923385889" cy="138.9947737352846" opacity="0.5484142767933065"></circle><circle r="6.092866874596678" cx="726.4532001526806" cy="142.10043298775153" opacity="0.8658077395290803"></circle><circle r="5.411732432008376" cx="241.44654509841882" cy="117.41596870898876" opacity="0.25501783812221707"></circle><circle r="6.901156907421227" cx="22.653538666561193" cy="204.36329899720332" opacity="0.9927921250475304"></circle><circle r="6.9708927477406695" cx="264.0893540485306" cy="413.9950113584004" opacity="0.13507856435869872"></circle><circle r="6.488748068450362" cx="341.62235604970203" cy="509.3734651601045" opacity="0.9691431744015803"></circle><circle r="6.471680827605386" cx="77.85739318726881" cy="600.2797487483153" opacity="0.5393882687366165"></circle><circle r="3.7646958332836986" cx="30.003569089152602" cy="761.2002753082057" opacity="0.4324265050567071"></circle><circle r="9.611211413726345" cx="546.9572293086886" cy="347.40302971161907" opacity="0.6836204943287647"></circle><circle r="9.751954488679074" cx="146.19458183138997" cy="161.93457777236435" opacity="0.6131822008435986"></circle><circle r="8.343864279025095" cx="154.3416769569307" cy="206.96263452687532" opacity="0.836879872690671"></circle><circle r="6.278831096876802" cx="499.9133760120739" cy="263.0038959494368" opacity="0.7907579544790146"></circle><circle r="11.679331146853965" cx="539.3975239203181" cy="713.4522320767088" opacity="0.8465029062784074"></circle><circle r="10.064845735795005" cx="372.4433480099542" cy="364.60664345122484" opacity="0.8313278956823275"></circle><circle r="4.654240622330036" cx="170.08508051179766" cy="740.2917212782227" opacity="0.5152155488503973"></circle><circle r="5.832531860078899" cx="785.6931932679861" cy="589.6701675116406" opacity="0.46139363888134066"></circle><circle r="6.34765692585383" cx="162.06407172621527" cy="16.98332486352258" opacity="0.4760236631816056"></circle><circle r="6.291672297855039" cx="204.30018267028842" cy="74.61263617862154" opacity="0.5213546984207299"></circle><circle r="8.190285727429767" cx="579.2699048856543" cy="394.56893222396207" opacity="0.5872344393712489"></circle><circle r="5.657497783145862" cx="252.4098796743508" cy="170.75902427991613" opacity="0.9445468474106765"></circle><circle r="8.52729851370714" cx="88.6146631211807" cy="358.5979402797401" opacity="0.7021685055658533"></circle><circle r="10.576302984448194" cx="629.300456084273" cy="193.42220172562838" opacity="0.3471535729563831"></circle><circle r="6.9809242033174534" cx="438.9050476264234" cy="95.99349485225358" opacity="0.9062794200271485"></circle><circle r="7.518158312589582" cx="286.60882584371893" cy="211.93487187473747" opacity="0.9025352922872576"></circle><circle r="5.252176709316197" cx="15.755904222064313" cy="17.523794012963368" opacity="0.21240945296530017"></circle><circle r="5.270000526482615" cx="479.2167584115674" cy="571.3868525733769" opacity="0.6495712167457076"></circle><circle r="6.408856697694758" cx="321.4496224155043" cy="448.22791486598703" opacity="0.30978796285923893"></circle><circle r="6.177435952145773" cx="31.528374414201426" cy="312.8457297894109" opacity="0.321969565011528"></circle><circle r="3.836524950868008" cx="468.590289064947" cy="593.1302215224575" opacity="0.8524589732839042"></circle><circle r="8.110446042398866" cx="209.2501140263094" cy="24.980759512177407" opacity="0.9495787384474361"></circle><circle r="5.36474646153204" cx="634.9926390458534" cy="112.94553545373252" opacity="0.5260962619689898"></circle><circle r="9.35346680179981" cx="609.8030433423273" cy="650.3920084781837" opacity="0.5589291364812263"></circle><circle r="6.23152254305892" cx="250.873388843839" cy="228.90676679813205" opacity="0.5298258545533858"></circle><circle r="9.5691279275004" cx="135.68445313028786" cy="711.2518539559213" opacity="0.15733237478854717"></circle><circle r="7.941499417320845" cx="756.6894113547429" cy="112.52735049324207" opacity="0.27044114527355256"></circle><circle r="6.587995594368579" cx="242.60750478018429" cy="282.8007324614714" opacity="0.8830289929042421"></circle><circle r="8.80739148906517" cx="623.1402916106233" cy="738.3055864786622" opacity="0.8269792523264119"></circle><circle r="6.485515101960978" cx="112.14392579941162" cy="588.6074858160463" opacity="0.21364713299735688"></circle><circle r="6.53674167379353" cx="91.75670072391749" cy="452.4192580010013" opacity="0.5853090727785119"></circle><circle r="6.288414297403474" cx="111.29408561164269" cy="743.3210909076809" opacity="0.5162889682990236"></circle><circle r="9.865019992755407" cx="697.4449281873838" cy="673.5756527677728" opacity="0.3767794339049172"></circle><circle r="4.699864144550531" cx="502.6424080462513" cy="602.1668415187422" opacity="0.3176392357798469"></circle><circle r="7.8152162903655125" cx="20.14199416262577" cy="702.914926853708" opacity="0.6337430129284151"></circle><circle r="10.66643307110748" cx="595.4868913490545" cy="611.3960559874477" opacity="0.5295912122854993"></circle><circle r="10.98022552951166" cx="353.99166030530336" cy="76.23864942386693" opacity="0.7759373414493962"></circle><circle r="3.0211054985365826" cx="567.6726912513855" cy="788.6618823799636" opacity="0.15608186552027362"></circle><circle r="2.4559415562534297" cx="363.3373523483461" cy="790.5540947514417" opacity="0.39225005375921707"></circle><circle r="5.728030059375247" cx="718.5489978600098" cy="785.7448381047612" opacity="0.8485971650269443"></circle><circle r="7.326883215608563" cx="253.3639260121494" cy="631.4998751524206" opacity="0.4618048268112369"></circle><circle r="8.910967028113944" cx="477.0917245083938" cy="337.9185062713928" opacity="0.9372448581445447"></circle><circle r="7.5734692313760235" cx="300.6992090034891" cy="604.556833734563" opacity="0.8058206578700359"></circle><circle r="4.041888183488714" cx="251.51012077306902" cy="352.16274547866857" opacity="0.46545769887426236"></circle><circle r="5.683081148999168" cx="21.8460309851126" cy="785.955183645692" opacity="0.8243294673107178"></circle><circle r="6.044228362340051" cx="527.4278275247996" cy="77.62462789681241" opacity="0.994750735997636"></circle><circle r="10.015189614715263" cx="340.8696105674448" cy="225.20200372305482" opacity="0.8526988851479896"></circle><circle r="5.019747428852572" cx="16.278573295433564" cy="655.1129908782252" opacity="0.7460756853809271"></circle><circle r="8.123867386261628" cx="495.0159628002987" cy="729.0862865554669" opacity="0.8436292648376862"></circle><circle r="5.301682755897488" cx="503.84707572876147" cy="189.3642393759028" opacity="0.5089728098419762"></circle><circle r="10.239417819327487" cx="362.7178110846154" cy="24.550953370803498" opacity="0.820294575066679"></circle><circle r="5.8620501853812135" cx="190.54882953258766" cy="317.0530800878255" opacity="0.7798933484930501"></circle><circle r="6.846340300107739" cx="774.8525253715062" cy="780.0276396965423" opacity="0.9635756451686193"></circle><circle r="8.615901212681496" cx="308.0171608387246" cy="399.67003524303374" opacity="0.5253617963051364"></circle><circle r="10.588187283736582" cx="759.1861085208454" cy="241.17576181616397" opacity="0.38312258340743477"></circle><circle r="12.30564903675774" cx="218.76848779810288" cy="539.2487079606283" opacity="0.7775275821601149"></circle><circle r="9.03528790996728" cx="560.8605627337785" cy="583.2205919394404" opacity="0.414999201358627"></circle><circle r="6.685248089015706" cx="194.20394818816342" cy="362.0319422018687" opacity="0.6687132882954674"></circle><circle r="8.080291469981166" cx="233.3918521208081" cy="321.6045879076282" opacity="0.19996546990485403"></circle><circle r="8.497344606795025" cx="698.0345678779187" cy="259.8872305191762" opacity="0.23762010590151866"></circle><circle r="9.153289028180914" cx="126.20926017495032" cy="620.6228986893904" opacity="0.3044696390532606"></circle><circle r="6.41205970191684" cx="493.8794209005426" cy="294.2417984908199" opacity="0.9956604066076035"></circle><circle r="3.7237094919665354" cx="772.651125593033" cy="14.158096261975126" opacity="0.46975543907097694"></circle><circle r="7.4548671305166785" cx="768.9395188993709" cy="289.69455177206237" opacity="0.38791933178954463"></circle><circle r="4.279022320584201" cx="758.2308501265429" cy="708.4986306249771" opacity="0.20537716106247683"></circle><circle r="4.366750343529785" cx="783.1796917632987" cy="91.67637789376619" opacity="0.44729216917007675"></circle><circle r="7.079638826546006" cx="142.01495059210333" cy="663.1329504114373" opacity="0.7547226434374188"></circle><circle r="9.25407685618534" cx="161.98247888972045" cy="258.2783043786336" opacity="0.4664883624089464"></circle><circle r="8.90183878204114" cx="678.0876592924186" cy="97.27236346744976" opacity="0.8130977886182202"></circle><circle r="5.378395907140305" cx="786.7636087022787" cy="48.024846485518175" opacity="0.9182883556152933"></circle><circle r="7.843466237760746" cx="81.1476437553183" cy="113.15092482055962" opacity="0.8038231667041801"></circle><circle r="8.436781402183183" cx="558.0108991790125" cy="124.55960661859137" opacity="0.27947077547842736"></circle><circle r="6.567904907047127" cx="347.92282997956806" cy="130.99861586746724" opacity="0.8256545115448239"></circle><circle r="7.458172556327778" cx="655.2001094181711" cy="651.7701009158264" opacity="0.7366754736036275"></circle><circle r="3.8565291295482274" cx="349.7526408718293" cy="770.478064587227" opacity="0.27310791639166443"></circle><circle r="5.592718772906676" cx="539.3388083658898" cy="288.6814295556142" opacity="0.3833892534971959"></circle><circle r="7.728004047179546" cx="445.7520836131106" cy="299.4450580622691" opacity="0.9650583085628744"></circle><circle r="4.797796631606888" cx="275.7609516644779" cy="76.84010437411432" opacity="0.3100361021829295"></circle><circle r="6.900120875591396" cx="190.71098794170254" cy="681.705661713503" opacity="0.7264782380862428"></circle><circle r="7.116878697131577" cx="23.296780423874132" cy="247.6548544209905" opacity="0.5887402623261438"></circle><circle r="8.382554138243522" cx="775.1344539881568" cy="398.99288828124435" opacity="0.4468864980059444"></circle><circle r="7.60351562543623" cx="517.3537390987614" cy="325.3011751903012" opacity="0.95521617948445"></circle><circle r="9.592209915686297" cx="279.2899059661291" cy="550.510832420963" opacity="0.18377677681513177"></circle><circle r="7.202516138504929" cx="179.49007440486542" cy="783.2585126820159" opacity="0.8067246178250831"></circle><circle r="4.335855700927221" cx="50.82375276724611" cy="15.075549126639304" opacity="0.968130252359373"></circle><circle r="6.376611195278524" cx="19.505829565916137" cy="595.8951924506529" opacity="0.7700125426555688"></circle><circle r="6.523757426734747" cx="441.5407394548561" cy="464.8502204085513" opacity="0.19422251859309775"></circle><circle r="8.83202923247717" cx="517.8942471424598" cy="381.94028173081057" opacity="0.2783146187125849"></circle><circle r="4.82321891010025" cx="533.1737222345594" cy="538.9618752614996" opacity="0.7586306516960164"></circle><circle r="13.546862212004292" cx="404.85587114546183" cy="416.4344497170737" opacity="0.3979760724107383"></circle><circle r="8.269939729532425" cx="62.71758986665307" cy="217.74113158251146" opacity="0.16794124109866426"></circle><circle r="8.903266347198517" cx="437.476349710529" cy="667.0619470549913" opacity="0.19491959718320315"></circle><circle r="7.142566592344119" cx="626.9874789241316" cy="291.14660242850795" opacity="0.1986913353447926"></circle><circle r="8.01240889244396" cx="594.4301273206089" cy="764.4138012459641" opacity="0.8588477766846581"></circle></g></svg>